<?xml version="1.0" encoding="utf-8"?>
<!-- AdRig — Concept F+ : Creative AR monogram (refined, tech accents)
     - Builds on Concept F (compact badge) with subtle circuit traces,
       inner bevel, and a polished top highlight.
     - File: assets/logo/adrig_redesign_F_plus.svg
-->
<svg xmlns="http://www.w3.org/2000/svg" width="1024" height="1024" viewBox="0 0 1024 1024" preserveAspectRatio="xMidYMid meet">
  <defs>
    <linearGradient id="bgG" x1="0%" x2="100%" y1="0%" y2="100%">
      <stop offset="0%" stop-color="#00D9FF" />
      <stop offset="60%" stop-color="#0099FF" />
      <stop offset="100%" stop-color="#0056CC" />
    </linearGradient>

    <!-- soft outer glow -->
    <filter id="outGlow" x="-40%" y="-40%" width="180%" height="180%">
      <feGaussianBlur stdDeviation="18" result="b"/>
      <feMerge><feMergeNode in="b"/><feMergeNode in="SourceGraphic"/></feMerge>
    </filter>

    <!-- inner shadow to give badge depth -->
    <filter id="innerShadow" x="-20%" y="-20%" width="140%" height="140%">
      <feOffset dx="0" dy="6" result="off"/>
      <feGaussianBlur in="off" stdDeviation="10" result="blurOff"/>
      <feComposite in="blurOff" in2="SourceAlpha" operator="arithmetic" k2="-1" k3="1" result="innerMask"/>
      <feColorMatrix in="innerMask" type="matrix" values="0 0 0 0 0   0 0 0 0 0   0 0 0 0 0   0 0 0 0.35"/>
      <feMerge>
        <feMergeNode/>
        <feMergeNode in="SourceGraphic"/>
      </feMerge>
    </filter>

    <!-- small glossy highlight -->
    <linearGradient id="gloss" x1="0%" x2="0%" y1="0%" y2="100%">
      <stop offset="0%" stop-color="rgba(255,255,255,0.45)"/>
      <stop offset="100%" stop-color="rgba(255,255,255,0.0)"/>
    </linearGradient>

    <style><![CDATA[
      .mono { font-family: 'Inter', 'Helvetica Neue', Arial, sans-serif; font-weight:900; }
    ]]></style>
  </defs>

  <!-- Rounded square badge background -->
  <g>
    <rect x="64" y="64" rx="128" ry="128" width="896" height="896" fill="url(#bgG)" filter="url(#outGlow)"/>

    <!-- inner panel for subtle bevel -->
    <rect x="120" y="120" rx="112" ry="112" width="784" height="784" fill="none" stroke="rgba(255,255,255,0.08)" stroke-width="6"/>

    <!-- inner shadow to sit above the gradient -->
    <g filter="url(#innerShadow)">
      <rect x="64" y="64" rx="128" ry="128" width="896" height="896" fill="none"/>
    </g>

    <!-- circuit traces (subtle) at top-left to imply tech/telemetry -->
    <g transform="translate(180,180)" opacity="0.9" stroke="#BFF5FF" stroke-width="6" stroke-linecap="round" stroke-linejoin="round">
      <path d="M0 60 L120 60 L120 20" stroke-opacity="0.18"/>
      <circle cx="0" cy="60" r="6" fill="#BFF5FF" stroke="none" opacity="0.18"/>
      <circle cx="120" cy="20" r="6" fill="#BFF5FF" stroke="none" opacity="0.18"/>
    </g>

    <!-- Main AR monogram (white) with negative 'A' cutout -->
    <g transform="translate(160,160)">
      <!-- White 'R' body -->
      <path d="M240 560 L240 0 L420 0 C540 0 580 150 480 230 L620 560 L420 560 L420 380 L320 380 L320 560 Z" fill="#FFFFFF"/>

      <!-- Negative-space 'A' cutout (placed inside R body) -->
      <path d="M300 420 L380 120 L460 420 Z" fill="url(#bgG)"/>

      <!-- small creative twist: diagonal notch on R leg -->
      <path d="M420 380 L460 560" stroke="#F0FBFF" stroke-width="10" stroke-linecap="round" opacity="0.08"/>

      <!-- subtle micro-dot matrix pattern near bottom-right for uniqueness -->
      <g transform="translate(520,420)" opacity="0.12" fill="#FFFFFF">
        <circle cx="0" cy="0" r="6" />
        <circle cx="18" cy="0" r="6" />
        <circle cx="36" cy="0" r="6" />
        <circle cx="0" cy="18" r="6" />
      </g>

      <!-- small 'AdRig' label underneath (optional, small) -->
      <text x="560" y="660" class="mono" font-size="48" fill="#FFFFFF" opacity="0.95">AdRig</text>
    </g>

    <!-- glossy top highlight across badge -->
    <g>
      <rect x="64" y="64" width="896" height="220" rx="128" ry="128" fill="url(#gloss)" opacity="0.15"/>
    </g>
  </g>
</svg>
